<?xml version="1.0" encoding="utf-8"?>
<!-- Generator: Adobe Illustrator 27.2.0, SVG Export Plug-In . SVG Version: 6.00 Build 0)  -->
<svg version="1.1" id="Layer_1" xmlns="http://www.w3.org/2000/svg" xmlns:xlink="http://www.w3.org/1999/xlink" x="0px" y="0px"
	 viewBox="0 0 272.7 88.8" style="enable-background:new 0 0 272.7 88.8;" xml:space="preserve">
<style type="text/css">
	.st0{fill:#010101;}
	.st1{fill:#F5A61E;}
	.st2{fill:#231F20;}
	.st3{fill:#FFFFFF;}
	.st4{fill:none;stroke:#F5A61E;stroke-width:0.8137;stroke-miterlimit:10;}
</style>
<g>
	<g>
		<path class="st0" d="M96.7,75.9c0,0.4-0.1,0.8-0.3,1c-0.2,0.3-0.5,0.5-0.9,0.7l1.1,2h0.9v1.2h-2.1l-1.5-3h-0.8v1.8H94v1.2h-3.5
			v-1.2h0.9v-4.5h-0.9V74h3.9c0.7,0,1.3,0.2,1.8,0.5C96.5,74.8,96.7,75.3,96.7,75.9z M94.9,75.9c0-0.3-0.1-0.5-0.2-0.6
			c-0.2-0.1-0.4-0.2-0.7-0.2h-0.8v1.6h0.6C94.5,76.7,94.9,76.5,94.9,75.9z"/>
		<path class="st0" d="M102.2,77.9v1.7h0.8v1.1h-2.3v-0.4c-0.4,0.3-0.9,0.4-1.3,0.4c-0.5,0-0.9-0.1-1.2-0.4s-0.5-0.6-0.5-1.1
			c0-0.5,0.2-0.9,0.5-1.2c0.3-0.3,0.8-0.4,1.4-0.4c0.2,0,0.4,0,0.5,0.1c0.2,0,0.3,0.1,0.5,0.2v-0.4c0-0.2-0.1-0.4-0.2-0.6
			c-0.1-0.1-0.4-0.2-0.7-0.2c-0.3,0-0.6,0.1-0.9,0.4l-1.2-0.2c0.4-0.7,1.1-1.1,2.3-1.1c0.8,0,1.4,0.2,1.7,0.5
			C102,76.8,102.2,77.3,102.2,77.9z M99.8,79.9c0.3,0,0.6-0.2,0.9-0.5V79c-0.3-0.2-0.6-0.3-0.9-0.3c-0.2,0-0.4,0.1-0.5,0.2
			s-0.2,0.2-0.2,0.4C99.1,79.7,99.3,79.9,99.8,79.9z"/>
		<path class="st0" d="M108.8,79.7v1.1h-2.3v-0.6c-0.4,0.4-0.9,0.6-1.4,0.6c-0.4,0-0.8-0.1-1.1-0.3c-0.3-0.2-0.5-0.5-0.7-0.9
			c-0.2-0.4-0.3-0.8-0.3-1.2c0-0.5,0.1-0.9,0.3-1.3c0.2-0.4,0.4-0.7,0.7-0.9c0.3-0.2,0.7-0.3,1.1-0.3c0.6,0,1,0.2,1.4,0.6v-1.5h-0.7
			V74h2.2v5.7H108.8z M105.6,79.7c0.3,0,0.5-0.1,0.7-0.3c0.2-0.2,0.2-0.5,0.2-0.9s-0.1-0.7-0.3-0.9c-0.2-0.2-0.4-0.4-0.7-0.4
			c-0.3,0-0.5,0.1-0.7,0.4c-0.2,0.2-0.3,0.5-0.3,0.9c0,0.4,0.1,0.7,0.3,0.9C105.1,79.5,105.3,79.7,105.6,79.7z"/>
		<path class="st0" d="M112.1,79.7v1.1h-2.9v-1.1h0.7v-2.5h-0.7v-1.1h2.2v3.6H112.1z M111.5,74.7c0,0.2-0.1,0.4-0.2,0.6
			c-0.2,0.2-0.4,0.2-0.6,0.2c-0.2,0-0.4-0.1-0.6-0.2c-0.2-0.2-0.2-0.4-0.2-0.6c0-0.2,0.1-0.4,0.2-0.6c0.2-0.2,0.4-0.2,0.6-0.2
			c0.2,0,0.4,0.1,0.6,0.2C111.4,74.3,111.5,74.5,111.5,74.7z"/>
		<path class="st0" d="M117.4,78.4c0,0.5-0.1,0.9-0.3,1.3c-0.2,0.4-0.5,0.7-0.9,0.9c-0.4,0.2-0.8,0.3-1.2,0.3
			c-0.5,0-0.9-0.1-1.3-0.3s-0.7-0.5-0.9-0.9c-0.2-0.4-0.3-0.8-0.3-1.3c0-0.5,0.1-0.9,0.3-1.3c0.2-0.4,0.5-0.7,0.9-0.9
			c0.4-0.2,0.8-0.3,1.3-0.3c0.5,0,0.9,0.1,1.3,0.3c0.4,0.2,0.7,0.5,0.9,0.9C117.3,77.5,117.4,77.9,117.4,78.4z M114.9,79.7
			c0.3,0,0.5-0.1,0.7-0.3c0.2-0.2,0.2-0.6,0.2-1c0-0.4-0.1-0.7-0.2-0.9c-0.2-0.2-0.4-0.3-0.7-0.3c-0.3,0-0.5,0.1-0.7,0.3
			c-0.2,0.2-0.2,0.6-0.2,1c0,0.4,0.1,0.7,0.3,0.9C114.4,79.6,114.7,79.7,114.9,79.7z"/>
		<path class="st0" d="M123.4,78.5c0,0.5-0.1,0.9-0.2,1.2c-0.2,0.4-0.4,0.7-0.7,0.9c-0.3,0.2-0.7,0.3-1.1,0.3c-0.5,0-1-0.2-1.4-0.6
			v1.5h0.9v1.1h-3.2v-1.1h0.8v-4.7h-0.7v-1.1h2.2v0.6c0.4-0.4,0.9-0.7,1.4-0.7c0.4,0,0.8,0.1,1.1,0.3c0.3,0.2,0.5,0.5,0.7,0.9
			C123.3,77.6,123.4,78,123.4,78.5z M120.9,79.7c0.3,0,0.5-0.1,0.7-0.3c0.2-0.2,0.2-0.5,0.2-0.9c0-0.4-0.1-0.7-0.2-0.9
			s-0.4-0.3-0.7-0.3c-0.3,0-0.5,0.1-0.7,0.3s-0.3,0.5-0.3,0.9c0,0.4,0.1,0.7,0.3,0.9S120.6,79.7,120.9,79.7z"/>
		<path class="st0" d="M127.2,75.9c0.5,0,0.8,0.1,1.1,0.4c0.2,0.3,0.4,0.7,0.4,1.3v2h0.7v1.1h-2.2v-3.1c0-0.2,0-0.3-0.1-0.4
			c-0.1-0.1-0.2-0.1-0.4-0.1c-0.2,0-0.5,0.1-0.8,0.3v2.2h0.7v1.1h-2.9v-1.1h0.8v-4.6h-0.8V74h2.3v2.4
			C126.4,76.1,126.8,75.9,127.2,75.9z"/>
		<path class="st0" d="M134.1,77.9v1.7h0.8v1.1h-2.3v-0.4c-0.4,0.3-0.9,0.4-1.3,0.4c-0.5,0-0.9-0.1-1.2-0.4s-0.5-0.6-0.5-1.1
			c0-0.5,0.2-0.9,0.5-1.2c0.3-0.3,0.8-0.4,1.4-0.4c0.2,0,0.4,0,0.5,0.1c0.2,0,0.3,0.1,0.5,0.2v-0.4c0-0.2-0.1-0.4-0.2-0.6
			c-0.1-0.1-0.4-0.2-0.7-0.2c-0.3,0-0.6,0.1-0.9,0.4l-1.2-0.2c0.4-0.7,1.1-1.1,2.3-1.1c0.8,0,1.4,0.2,1.7,0.5
			C133.9,76.8,134.1,77.3,134.1,77.9z M131.6,79.9c0.3,0,0.6-0.2,0.9-0.5V79c-0.3-0.2-0.6-0.3-0.9-0.3c-0.2,0-0.4,0.1-0.5,0.2
			c-0.1,0.1-0.2,0.2-0.2,0.4C131,79.7,131.2,79.9,131.6,79.9z"/>
		<path class="st0" d="M139.3,76v1.4c-0.4,0-0.7,0.1-1,0.2s-0.4,0.3-0.6,0.5c-0.1,0.3-0.2,0.6-0.2,1.1v0.5h0.9v1.1h-3.3v-1.1h0.9
			v-2.5h-0.8v-1.1h2.2v1.2c0.1-0.4,0.3-0.7,0.6-0.9c0.3-0.2,0.7-0.4,1.1-0.4C139.2,76,139.2,76,139.3,76z"/>
		<path class="st0" d="M144.8,76.6c0.6-0.4,1.2-0.6,1.9-0.6c0.4,0,0.7,0.1,0.9,0.2c0.2,0.1,0.4,0.3,0.5,0.6c0.1,0.3,0.2,0.6,0.2,1.1
			v1.8h0.8v1.1h-2.3V78c0-0.5-0.2-0.7-0.6-0.7c-0.3,0-0.7,0.1-1.1,0.3v2.1h0.8v1.1h-2.3V78c0-0.5-0.2-0.8-0.6-0.8
			c-0.3,0-0.7,0.1-1.1,0.3v2.1h0.8v1.1h-3.1v-1.1h0.8v-2.5h-0.8v-1.1h2.3v0.4c0.5-0.3,1-0.5,1.5-0.5C144,76,144.5,76.2,144.8,76.6z"
			/>
		<path class="st0" d="M153.8,77.9v1.7h0.8v1.1h-2.3v-0.4c-0.4,0.3-0.9,0.4-1.3,0.4c-0.5,0-0.9-0.1-1.2-0.4s-0.5-0.6-0.5-1.1
			c0-0.5,0.2-0.9,0.5-1.2c0.3-0.3,0.8-0.4,1.4-0.4c0.2,0,0.4,0,0.5,0.1c0.2,0,0.3,0.1,0.5,0.2v-0.4c0-0.2-0.1-0.4-0.2-0.6
			c-0.1-0.1-0.4-0.2-0.7-0.2c-0.3,0-0.6,0.1-0.9,0.4l-1.2-0.2c0.4-0.7,1.1-1.1,2.3-1.1c0.8,0,1.4,0.2,1.7,0.5
			C153.6,76.8,153.8,77.3,153.8,77.9z M151.3,79.9c0.3,0,0.6-0.2,0.9-0.5V79c-0.3-0.2-0.6-0.3-0.9-0.3c-0.2,0-0.4,0.1-0.5,0.2
			c-0.1,0.1-0.2,0.2-0.2,0.4C150.7,79.7,150.9,79.9,151.3,79.9z"/>
		<path class="st0" d="M164.4,77.5c0,0.7-0.2,1.3-0.5,1.8s-0.7,0.9-1.2,1.1c-0.5,0.3-1.1,0.4-1.8,0.4h-3.7v-1.2h1v-4.5h-1V74h3.7
			c0.7,0,1.3,0.1,1.9,0.4c0.5,0.2,1,0.6,1.3,1.1C164.3,76,164.4,76.7,164.4,77.5z M162.6,77.4c0-0.7-0.2-1.3-0.5-1.7
			c-0.3-0.4-0.9-0.6-1.5-0.6H160v4.5h0.4c0.6,0,1.1-0.1,1.4-0.3s0.5-0.5,0.7-0.8C162.5,78.2,162.6,77.8,162.6,77.4z"/>
		<path class="st0" d="M170.2,78.7h-3.5c0,0.4,0.2,0.6,0.4,0.9c0.2,0.2,0.5,0.3,0.8,0.3c0.4,0,0.7-0.2,1.1-0.6l1.2,0.4
			c-0.3,0.4-0.6,0.7-1,0.9c-0.4,0.2-0.8,0.3-1.4,0.3c-0.5,0-1-0.1-1.4-0.3c-0.4-0.2-0.7-0.5-0.9-0.8s-0.3-0.8-0.3-1.3
			c0-0.5,0.1-0.9,0.3-1.3c0.2-0.4,0.5-0.7,0.9-0.9c0.4-0.2,0.8-0.3,1.3-0.3c0.5,0,0.9,0.1,1.3,0.3c0.4,0.2,0.7,0.6,0.9,1
			S170.2,78.2,170.2,78.7z M167.7,77c-0.3,0-0.5,0.1-0.6,0.2c-0.2,0.2-0.3,0.4-0.3,0.7h2c0-0.3-0.2-0.5-0.3-0.7
			C168.2,77,167.9,77,167.7,77z"/>
		<path class="st0" d="M173.5,79.7v1.1h-2.9v-1.1h0.7v-4.6h-0.7V74h2.2v5.7H173.5z"/>
		<path class="st0" d="M176.8,79.7v1.1h-2.9v-1.1h0.7v-2.5h-0.7v-1.1h2.2v3.6H176.8z M176.2,74.7c0,0.2-0.1,0.4-0.2,0.6
			s-0.4,0.2-0.6,0.2c-0.2,0-0.4-0.1-0.6-0.2c-0.2-0.2-0.2-0.4-0.2-0.6c0-0.2,0.1-0.4,0.2-0.6s0.4-0.2,0.6-0.2c0.2,0,0.4,0.1,0.6,0.2
			S176.2,74.5,176.2,74.7z"/>
		<path class="st0" d="M178.9,77.2l0.7,2.1l0.9-2.1h-0.6v-1.1h2.5v1.1h-0.7l-1.5,3.7h-1.3l-1.6-3.7h-0.7v-1.1h2.9v1.1H178.9z"/>
		<path class="st0" d="M187.5,78.7H184c0,0.4,0.2,0.6,0.4,0.9c0.2,0.2,0.5,0.3,0.8,0.3c0.4,0,0.7-0.2,1.1-0.6l1.2,0.4
			c-0.3,0.4-0.6,0.7-1,0.9c-0.4,0.2-0.8,0.3-1.4,0.3c-0.5,0-1-0.1-1.4-0.3c-0.4-0.2-0.7-0.5-0.9-0.8s-0.3-0.8-0.3-1.3
			c0-0.5,0.1-0.9,0.3-1.3c0.2-0.4,0.5-0.7,0.9-0.9c0.4-0.2,0.8-0.3,1.3-0.3c0.5,0,0.9,0.1,1.3,0.3c0.4,0.2,0.7,0.6,0.9,1
			S187.5,78.2,187.5,78.7z M185,77c-0.3,0-0.5,0.1-0.6,0.2c-0.2,0.2-0.3,0.4-0.3,0.7h2c0-0.3-0.2-0.5-0.3-0.7
			C185.5,77,185.3,77,185,77z"/>
		<path class="st0" d="M191.9,76v1.4c-0.4,0-0.7,0.1-1,0.2s-0.4,0.3-0.6,0.5c-0.1,0.3-0.2,0.6-0.2,1.1v0.5h0.9v1.1h-3.3v-1.1h0.9
			v-2.5h-0.8v-1.1h2.2v1.2c0.1-0.4,0.3-0.7,0.6-0.9c0.3-0.2,0.7-0.4,1.1-0.4C191.8,76,191.9,76,191.9,76z"/>
		<path class="st0" d="M194.5,77.2l0.8,2.1l0.8-2.1h-0.6v-1.1h2.5v1.1h-0.7l-2.3,5.7h-1.6v-1.1h0.9l0.3-0.8l-1.7-3.8h-0.7v-1.1h2.8
			v1.1H194.5z"/>
		<path class="st0" d="M203.1,74.6V74h1.1v2h-1.1c0-0.3-0.2-0.6-0.3-0.7c-0.2-0.2-0.4-0.2-0.6-0.2c-0.2,0-0.3,0.1-0.5,0.2
			c-0.1,0.1-0.2,0.2-0.2,0.4c0,0.1,0,0.3,0.1,0.4c0.1,0.1,0.2,0.2,0.3,0.3c0.1,0.1,0.3,0.2,0.6,0.3l0.3,0.1c0.6,0.3,1,0.6,1.4,0.9
			c0.3,0.3,0.5,0.8,0.5,1.3c0,0.6-0.2,1.1-0.5,1.5c-0.4,0.4-0.8,0.5-1.4,0.5c-0.6,0-1-0.2-1.4-0.7v0.6h-1.1v-2.3h1.1
			c0,0.4,0.1,0.7,0.3,0.9c0.2,0.2,0.4,0.3,0.7,0.3c0.2,0,0.4-0.1,0.5-0.2c0.1-0.1,0.2-0.3,0.2-0.5c0-0.2-0.1-0.4-0.2-0.6
			c-0.2-0.2-0.4-0.3-0.8-0.5c-0.7-0.3-1.2-0.6-1.5-0.9c-0.3-0.3-0.5-0.7-0.5-1.2c0-0.3,0.1-0.7,0.2-0.9c0.2-0.3,0.4-0.5,0.7-0.7
			s0.6-0.2,0.9-0.2c0.3,0,0.5,0.1,0.7,0.2S203,74.4,203.1,74.6z"/>
		<path class="st0" d="M210.5,78.5c0,0.5-0.1,0.9-0.2,1.2c-0.2,0.4-0.4,0.7-0.7,0.9c-0.3,0.2-0.7,0.3-1.1,0.3c-0.5,0-1-0.2-1.4-0.6
			v1.5h0.9v1.1h-3.2v-1.1h0.8v-4.7h-0.7v-1.1h2.2v0.6c0.4-0.4,0.9-0.7,1.4-0.7c0.4,0,0.8,0.1,1.1,0.3c0.3,0.2,0.5,0.5,0.7,0.9
			C210.4,77.6,210.5,78,210.5,78.5z M208,79.7c0.3,0,0.5-0.1,0.7-0.3c0.2-0.2,0.2-0.5,0.2-0.9c0-0.4-0.1-0.7-0.2-0.9
			c-0.2-0.2-0.4-0.3-0.7-0.3c-0.3,0-0.5,0.1-0.7,0.3c-0.2,0.2-0.3,0.5-0.3,0.9c0,0.4,0.1,0.7,0.3,0.9
			C207.5,79.6,207.8,79.7,208,79.7z"/>
		<path class="st0" d="M216.1,78.7h-3.5c0,0.4,0.2,0.6,0.4,0.9c0.2,0.2,0.5,0.3,0.8,0.3c0.4,0,0.7-0.2,1.1-0.6l1.2,0.4
			c-0.3,0.4-0.6,0.7-1,0.9c-0.4,0.2-0.8,0.3-1.4,0.3c-0.5,0-1-0.1-1.4-0.3c-0.4-0.2-0.7-0.5-0.9-0.8s-0.3-0.8-0.3-1.3
			c0-0.5,0.1-0.9,0.3-1.3c0.2-0.4,0.5-0.7,0.9-0.9c0.4-0.2,0.8-0.3,1.3-0.3c0.5,0,0.9,0.1,1.3,0.3c0.4,0.2,0.7,0.6,0.9,1
			S216.1,78.2,216.1,78.7z M213.6,77c-0.3,0-0.5,0.1-0.6,0.2c-0.2,0.2-0.3,0.4-0.3,0.7h2c0-0.3-0.2-0.5-0.3-0.7
			C214.1,77,213.8,77,213.6,77z"/>
		<path class="st0" d="M220.4,76.5v-0.4h1V78h-1.1c-0.3-0.5-0.6-0.8-1.2-0.8c-0.3,0-0.6,0.1-0.8,0.3c-0.2,0.2-0.3,0.5-0.3,0.9
			c0,0.4,0.1,0.7,0.3,0.9c0.2,0.2,0.5,0.4,0.8,0.4c0.2,0,0.5-0.1,0.7-0.2s0.4-0.3,0.5-0.6l1.2,0.5c-0.3,0.5-0.6,0.8-0.9,1.1
			s-0.9,0.4-1.5,0.4c-0.8,0-1.4-0.2-1.9-0.7c-0.5-0.4-0.7-1-0.7-1.8c0-0.5,0.1-0.9,0.3-1.2c0.2-0.4,0.5-0.7,0.9-0.9s0.8-0.3,1.2-0.3
			C219.5,76,220,76.1,220.4,76.5z"/>
		<path class="st0" d="M225,79.7v1.1h-2.9v-1.1h0.7v-2.5h-0.7v-1.1h2.2v3.6H225z M224.4,74.7c0,0.2-0.1,0.4-0.2,0.6
			c-0.2,0.2-0.4,0.2-0.6,0.2c-0.2,0-0.4-0.1-0.6-0.2c-0.2-0.2-0.2-0.4-0.2-0.6c0-0.2,0.1-0.4,0.2-0.6s0.4-0.2,0.6-0.2
			c0.2,0,0.4,0.1,0.6,0.2C224.3,74.3,224.4,74.5,224.4,74.7z"/>
		<path class="st0" d="M229.9,77.9v1.7h0.8v1.1h-2.3v-0.4c-0.4,0.3-0.9,0.4-1.3,0.4c-0.5,0-0.9-0.1-1.2-0.4s-0.5-0.6-0.5-1.1
			c0-0.5,0.2-0.9,0.5-1.2c0.3-0.3,0.8-0.4,1.4-0.4c0.2,0,0.4,0,0.5,0.1c0.2,0,0.3,0.1,0.5,0.2v-0.4c0-0.2-0.1-0.4-0.2-0.6
			c-0.1-0.1-0.4-0.2-0.7-0.2c-0.3,0-0.6,0.1-0.9,0.4l-1.2-0.2c0.4-0.7,1.1-1.1,2.3-1.1c0.8,0,1.4,0.2,1.7,0.5
			C229.8,76.8,229.9,77.3,229.9,77.9z M227.5,79.9c0.3,0,0.6-0.2,0.9-0.5V79c-0.3-0.2-0.6-0.3-0.9-0.3c-0.2,0-0.4,0.1-0.5,0.2
			c-0.1,0.1-0.2,0.2-0.2,0.4C226.9,79.7,227.1,79.9,227.5,79.9z"/>
		<path class="st0" d="M233.9,79.7v1.1H231v-1.1h0.7v-4.6H231V74h2.2v5.7H233.9z"/>
		<path class="st0" d="M237.3,79.7v1.1h-2.9v-1.1h0.7v-2.5h-0.7v-1.1h2.2v3.6H237.3z M236.7,74.7c0,0.2-0.1,0.4-0.2,0.6
			s-0.4,0.2-0.6,0.2c-0.2,0-0.4-0.1-0.6-0.2c-0.2-0.2-0.2-0.4-0.2-0.6c0-0.2,0.1-0.4,0.2-0.6s0.4-0.2,0.6-0.2c0.2,0,0.4,0.1,0.6,0.2
			S236.7,74.5,236.7,74.7z"/>
		<path class="st0" d="M240.6,76.2v-0.2h1.1v1.4h-1.1c-0.1-0.3-0.4-0.5-1-0.5c-0.4,0-0.6,0.1-0.6,0.4c0,0.1,0.1,0.2,0.2,0.2
			c0.1,0.1,0.3,0.1,0.5,0.1c0.6,0.1,1.1,0.2,1.5,0.3s0.6,0.3,0.7,0.5s0.2,0.5,0.2,0.8c0,0.5-0.2,0.9-0.5,1.2
			c-0.3,0.3-0.8,0.4-1.4,0.4c-0.6,0-1-0.1-1.2-0.3v0.2h-1.1v-1.6h1.1c0,0.2,0.1,0.4,0.3,0.5c0.2,0.1,0.4,0.2,0.7,0.2
			c0.3,0,0.5,0,0.6-0.1s0.2-0.2,0.2-0.3c0-0.1,0-0.2-0.1-0.2s-0.2-0.1-0.3-0.2s-0.4-0.1-0.7-0.2c-0.7-0.1-1.2-0.3-1.5-0.5
			s-0.5-0.6-0.5-1c0-0.4,0.2-0.8,0.5-1c0.3-0.2,0.7-0.4,1.3-0.4C239.8,76,240.2,76.1,240.6,76.2z"/>
		<path class="st0" d="M245.3,76.1v1.1h-0.9v2.1c0,0.1,0,0.3,0.1,0.3c0.1,0.1,0.2,0.1,0.3,0.1c0.1,0,0.3,0,0.5-0.1v1
			c-0.4,0.2-0.8,0.2-1.1,0.2c-0.4,0-0.7-0.1-0.9-0.3s-0.3-0.5-0.3-0.9v-2.5h-0.6v-1.1h0.6v-0.7l1.5-1.1v1.8H245.3z"/>
		<path class="st0" d="M248.7,76.2v-0.2h1.1v1.4h-1.1c-0.1-0.3-0.4-0.5-1-0.5c-0.4,0-0.6,0.1-0.6,0.4c0,0.1,0.1,0.2,0.2,0.2
			c0.1,0.1,0.3,0.1,0.5,0.1c0.6,0.1,1.1,0.2,1.5,0.3s0.6,0.3,0.7,0.5s0.2,0.5,0.2,0.8c0,0.5-0.2,0.9-0.5,1.2
			c-0.3,0.3-0.8,0.4-1.4,0.4c-0.6,0-1-0.1-1.2-0.3v0.2h-1.1v-1.6h1.1c0,0.2,0.1,0.4,0.3,0.5c0.2,0.1,0.4,0.2,0.7,0.2
			c0.3,0,0.5,0,0.6-0.1s0.2-0.2,0.2-0.3c0-0.1,0-0.2-0.1-0.2s-0.2-0.1-0.3-0.2s-0.4-0.1-0.7-0.2c-0.7-0.1-1.2-0.3-1.5-0.5
			s-0.5-0.6-0.5-1c0-0.4,0.2-0.8,0.5-1c0.3-0.2,0.7-0.4,1.3-0.4C247.9,76,248.3,76.1,248.7,76.2z"/>
	</g>
</g>
<g>
	<path class="st0" d="M137.1,18.4h24.4v8.1h-6.2v31.5h6.2V66h-24v-8.1h5.8V26.5H142L127.3,66h-5.1l-15-39.6h-1.1v31.5h6.1V66H92.1
		v-8.1h6.2V26.5h-6.2v-8.1h24l10.4,27.9L137.1,18.4z"/>
	<path class="st0" d="M215.3,42.8c0,5-1.1,9.2-3.2,12.7s-5,6.1-8.8,7.9c-3.7,1.8-8,2.7-12.9,2.7h-26.3v-8.1h7.2V26.5h-7.2v-8.1h25.7
		c4.9,0,9.3,0.8,13.1,2.5s6.8,4.3,9,8C214.2,32.6,215.3,37.2,215.3,42.8z M202.3,42.4c0-5.2-1.2-9.2-3.7-11.9c-2.4-2.7-6-4-10.7-4
		h-4.2v31.5h2.9c4.3,0,7.6-0.7,9.9-2.2c2.3-1.4,3.9-3.3,4.6-5.5C201.9,48.1,202.3,45.4,202.3,42.4z"/>
	<path class="st0" d="M240.3,22.3v-4h8.1v14.4h-8.1c-0.3-2.3-1.1-4.1-2.3-5.2s-2.7-1.8-4.5-1.8c-1.3,0-2.4,0.4-3.4,1.1
		c-0.9,0.7-1.4,1.7-1.4,2.8c0,1,0.3,1.8,0.9,2.6c0.6,0.7,1.3,1.3,2.3,1.8c0.9,0.5,2.3,1.2,4.2,2l1.9,0.8c4.2,1.8,7.4,3.9,9.5,6.4
		c2.1,2.4,3.2,5.5,3.2,9.2c0,4.4-1.3,7.8-3.8,10.4c-2.5,2.5-5.9,3.8-10.1,3.8c-4.1,0-7.3-1.5-9.6-4.6V66h-8.1V49.8h8.1
		c0.2,2.8,0.9,4.9,2.2,6.4c1.3,1.5,3,2.2,5.2,2.2c1.5,0,2.7-0.5,3.7-1.5c1-1,1.5-2.2,1.5-3.6c0-1.4-0.6-2.7-1.7-3.9
		c-1.1-1.2-3.1-2.4-5.9-3.6c-4.7-2.1-8.1-4.3-10.2-6.7c-2.1-2.4-3.2-5.1-3.2-8.2c0-2.4,0.6-4.6,1.7-6.6c1.1-2,2.7-3.6,4.6-4.7
		s4.1-1.7,6.4-1.7c1.9,0,3.5,0.4,5.1,1.1C238,19.7,239.3,20.9,240.3,22.3z"/>
</g>
<g>
	<rect x="21.8" y="21.4" class="st1" width="41.4" height="40.8"/>
	<g>
		<g>
			<polyline class="st2" points="42.4,0.9 52.8,11.2 32.1,11.2 			"/>
			<polyline class="st3" points="42.4,21.4 52.8,11.1 32.1,11.1 			"/>
			<polyline class="st2" points="52.8,11.1 63.1,21.4 42.4,21.4 			"/>
			<polyline class="st2" points="32.1,11.2 42.4,21.4 21.8,21.4 			"/>
			<polyline class="st2" points="42.4,21.4 52.8,31.6 32.1,31.6 			"/>
			<polyline class="st2" points="42.4,82.7 52.8,72.4 32.1,72.4 			"/>
			<polyline class="st3" points="42.4,62.2 52.8,72.5 32.1,72.5 			"/>
			<polyline class="st2" points="52.8,72.4 63.1,62.2 42.4,62.2 			"/>
			<polyline class="st2" points="32.1,72.4 42.4,62.2 21.8,62.2 			"/>
			<polyline class="st2" points="42.4,62.2 52.8,52 32.1,52 			"/>
			<polyline class="st2" points="1.1,41.8 11.4,31.6 11.4,52 			"/>
			<polyline class="st3" points="21.8,41.8 11.4,31.6 11.4,52 			"/>
			<polyline class="st2" points="11.4,31.6 21.8,21.4 21.8,41.8 			"/>
			<polyline class="st2" points="11.4,52 21.8,41.8 21.8,62.3 			"/>
			<polyline class="st2" points="21.8,41.8 32.1,31.6 32.1,52 			"/>
			<polyline class="st2" points="83.8,41.8 73.5,52 73.5,31.6 			"/>
			<polyline class="st3" points="63.1,41.8 73.5,52 73.5,31.6 			"/>
			<polyline class="st2" points="73.5,52 63.1,62.2 63.1,41.8 			"/>
			<polyline class="st2" points="73.5,31.6 63.1,41.8 63.1,21.4 			"/>
			<polyline class="st2" points="63.1,41.8 52.8,52 52.8,31.6 			"/>
			<rect x="32.1" y="31.6" class="st3" width="20.7" height="20.4"/>
		</g>
	</g>
</g>
<g>
	<path class="st1" d="M272.6,87.2L263,70.6c-0.2-0.3-0.6-0.6-1-0.6c-0.4,0-0.8,0.2-1,0.6l-9.6,16.6c-0.2,0.3-0.2,0.8,0,1.1
		c0.2,0.3,0.6,0.6,1,0.6h19.2c0.4,0,0.8-0.2,1-0.6C272.7,87.9,272.7,87.5,272.6,87.2"/>
	<path class="st2" d="M262,72.4c0.6,1,8.3,13.9,8.8,14.7c-1.2,0-16.4,0-17.6,0C253.8,86.1,261.4,73.3,262,72.4 M261.7,71.5
		l-9.4,15.8c-0.1,0.1-0.1,0.3,0,0.4c0.1,0.1,0.2,0.2,0.3,0.2h18.8c0.1,0,0.3-0.1,0.3-0.2c0.1-0.1,0.1-0.3,0-0.4l-9.4-15.8
		c-0.1-0.1-0.2-0.2-0.3-0.2C261.9,71.3,261.8,71.4,261.7,71.5z"/>
	<path class="st2" d="M262,80.2c0.3,0,0.7,0.1,0.9,0.3l1.6-2.7c-0.7-0.4-1.6-0.7-2.5-0.7c-0.9,0-1.8,0.2-2.5,0.7l1.6,2.7
		C261.4,80.3,261.7,80.2,262,80.2"/>
	<path class="st2" d="M260.2,82C260.2,82,260.2,82,260.2,82l-3.1,0c0,0,0,0,0,0c0,1.8,1,3.5,2.5,4.3l1.6-2.7
		C260.5,83.3,260.2,82.7,260.2,82"/>
	<path class="st2" d="M263.8,82C263.8,82,263.8,82,263.8,82c0,0.7-0.4,1.3-0.9,1.6l1.6,2.7c1.5-0.9,2.5-2.5,2.5-4.3c0,0,0,0,0,0
		L263.8,82"/>
	<path class="st2" d="M260.7,82c0-0.7,0.6-1.3,1.3-1.3c0.7,0,1.3,0.6,1.3,1.3c0,0.7-0.6,1.3-1.3,1.3C261.3,83.3,260.7,82.7,260.7,82
		"/>
</g>
<polygon class="st4" points="42.4,82.7 0.6,41.9 42.4,0.6 84,42.1 "/>
</svg>
